<?xml version="1.0" standalone="no"?><!DOCTYPE svg PUBLIC "-//W3C//DTD SVG 1.1//EN" "http://www.w3.org/Graphics/SVG/1.1/DTD/svg11.dtd"><svg t="1601279788145" class="icon" viewBox="0 0 1024 1024" version="1.1" xmlns="http://www.w3.org/2000/svg" p-id="1727" xmlns:xlink="http://www.w3.org/1999/xlink" width="200" height="200"><defs><style type="text/css"></style></defs><path d="M619.5 320.6c-1.1-0.2-2.3-0.4-3.4-0.8-10.4-3.5-16-14.8-12.4-25.2 1.6-4.9 41.6-120.7 141.2-193.9 8.9-6.5 21.3-4.6 27.8 4.3 6.5 8.8 4.6 21.3-4.2 27.8-89.6 65.8-126.8 173.5-127.1 174.5-3.3 9.2-12.6 14.7-21.9 13.3z" fill="#7F0518" p-id="1728"></path><path d="M784.4 243.3c-7-1.1-13.1-5.8-15.7-12.8-0.8-2-18.1-46.1-62.9-49-10.9-0.6-19.3-10-18.7-21s10.1-19.3 21-18.7c72.3 4.1 96.9 72.2 97.9 75.1 3.7 10.3-1.6 21.7-12 25.4-3.1 1.2-6.4 1.5-9.6 1zM720.1 280.9c-7.3-1.1-13.7-6.3-16-13.8-0.9-2.7-9.2-24.6-38.8-24.6-10.8 0.1-19.9-8.9-19.9-19.8 0-11 8.9-19.9 19.8-19.9 48.5-0.1 71.5 34.5 76.9 52.7 3.1 10.5-2.9 21.6-13.4 24.7-2.9 0.9-5.8 1.1-8.6 0.7zM406 320.6c1.1-0.2 2.3-0.4 3.4-0.8 10.4-3.5 16-14.8 12.4-25.2-1.6-4.9-41.6-120.7-141.2-193.9-8.9-6.5-21.3-4.6-27.8 4.3-6.5 8.8-4.6 21.3 4.2 27.8 89.6 65.8 126.8 173.5 127.1 174.5 3.2 9.2 12.5 14.7 21.9 13.3z" fill="#7F0518" p-id="1729"></path><path d="M241 243.3c7-1.1 13.1-5.8 15.7-12.8 0.8-2 18.1-46.1 62.9-49 10.9-0.6 19.3-10 18.7-21-0.6-11-10.1-19.3-21-18.7-72.3 4.1-96.9 72.2-97.9 75.1-3.7 10.3 1.6 21.7 12 25.4 3.1 1.2 6.4 1.5 9.6 1zM305.3 280.9c7.3-1.1 13.7-6.3 16-13.8 0.9-2.7 9.2-24.6 38.8-24.6 10.8 0.1 19.9-8.9 19.9-19.8 0-11-8.9-19.9-19.8-19.9-48.5-0.1-71.5 34.5-76.9 52.7-3.1 10.5 2.9 21.6 13.4 24.7 2.9 0.9 5.8 1.1 8.6 0.7z" fill="#7F0518" p-id="1730"></path><path d="M623.1 913.1c-29.4-8.2-80.3-49.3-111-49.3s-81.6 41-111 49.3C281.8 946.5 165 817.8 174.7 702c5.7-67.5 58.7-201.3 74.1-267.4C277.1 312.7 379.5 223.5 504 223.5h16.1c124.5 0 228.3 90.3 255.2 211.1 14.7 66.3 68.4 200 74.1 267.4 9.8 115.8-107.1 244.5-226.3 211.1z" fill="#FFC831" p-id="1731"></path><path d="M661.5 928.6c-13.9 0-27.7-1.9-41.2-5.6-13.3-3.7-29.5-12.9-46.6-22.6-21.7-12.3-46.3-26.3-61.7-26.3-15.4 0-40 14-61.7 26.3-17.1 9.7-33.2 18.9-46.5 22.6-52.2 14.5-109.2 0.5-156.5-38.6-55.8-46.2-88.4-118.1-82.9-183.3 3.6-43.1 25.9-112 45.5-172.8 11.9-36.8 23.1-71.5 28.8-96.1 30-129 139.1-219.1 265.2-219.1H520c127.5 0 236.5 90.1 265.2 219.2 5.7 25.5 17.4 61.7 29.8 100 20.1 62.2 41 126.6 44.5 168.8 5.5 65.2-27.1 137.1-82.9 183.3-34.9 29-75.3 44.2-115.1 44.2z m-35.7-25.3c46.4 12.9 95.3 0.6 137.9-34.6 50.8-42 80.5-107.1 75.5-165.8-3.3-39.8-24.7-105.9-43.6-164.2-12.6-38.8-24.4-75.4-30.3-101.9-26.6-119.6-127.4-203.1-245.2-203.1H504c-116.6 0-217.4 83.6-245.2 203.2-5.9 25.5-17.3 60.6-29.3 97.8-19.3 59.7-41.2 127.4-44.6 168.2-4.9 58.7 24.7 123.7 75.5 165.7 42.6 35.2 91.6 47.6 137.9 34.6 10.9-3 26-11.6 41.9-20.7 25.1-14.3 51-29 71.8-29 20.8 0 46.7 14.7 71.8 29 16 9.1 31.1 17.7 42 20.8z" fill="#7F0518" p-id="1732"></path><path d="M681.7 484.1m-67.9 0a67.9 67.9 0 1 0 135.8 0 67.9 67.9 0 1 0-135.8 0Z" fill="#7F0518" p-id="1733"></path><path d="M664.6 470.3m-31.3 0a31.3 31.3 0 1 0 62.6 0 31.3 31.3 0 1 0-62.6 0Z" fill="#FFFFFF" p-id="1734"></path><path d="M704.7 515.9m-14.3 0a14.3 14.3 0 1 0 28.6 0 14.3 14.3 0 1 0-28.6 0Z" fill="#FFFFFF" p-id="1735"></path><path d="M342.4 484.1m-67.9 0a67.9 67.9 0 1 0 135.8 0 67.9 67.9 0 1 0-135.8 0Z" fill="#7F0518" p-id="1736"></path><path d="M325.3 470.3m-31.3 0a31.3 31.3 0 1 0 62.6 0 31.3 31.3 0 1 0-62.6 0Z" fill="#FFFFFF" p-id="1737"></path><path d="M365.4 515.9m-14.3 0a14.3 14.3 0 1 0 28.6 0 14.3 14.3 0 1 0-28.6 0Z" fill="#FFFFFF" p-id="1738"></path><path d="M638.9 386.7c-2.3 0-4.6-0.7-6.5-2.3-4.4-3.6-5.1-10-1.5-14.4 0.7-0.9 17.9-21.7 45.4-23.6 18.8-1.4 37.3 6.3 55.1 22.6 4.2 3.8 4.4 10.3 0.6 14.5-3.8 4.2-10.3 4.4-14.5 0.6-13.4-12.3-26.3-18.1-39.7-17.2-18.4 1.3-30.8 16-30.9 16.1-2 2.4-5 3.7-8 3.7z" fill="#7F0518" p-id="1739"></path><path d="M392.3 386.7c-2.5 0-5-0.9-6.9-2.7-13.3-12.3-26.5-18.2-39.5-17.2-18.6 1.2-31.1 16-31.2 16.2-3.6 4.3-10.1 5-14.4 1.4-4.4-3.6-5-10-1.5-14.4 0.7-0.9 18-21.7 45.4-23.6 18.7-1.4 37.3 6.3 55.1 22.6 4.2 3.8 4.4 10.3 0.6 14.5-2 2.1-4.8 3.2-7.6 3.2z" fill="#7F0518" p-id="1740"></path><path d="M650.9 776.9a41.8 27.4 0 1 0 83.6 0 41.8 27.4 0 1 0-83.6 0Z" fill="#FF6A48" p-id="1741"></path><path d="M692.7 814.6c-29.2 0-52.1-16.6-52.1-37.7s22.9-37.7 52.1-37.7 52.1 16.6 52.1 37.7-22.9 37.7-52.1 37.7z m0-54.9c-18.1 0-31.6 9.1-31.6 17.2s13.5 17.2 31.6 17.2 31.6-9.1 31.6-17.2c0-8.2-13.5-17.2-31.6-17.2z" fill="#7F0518" p-id="1742"></path><path d="M279 776.9a41.8 27.4 0 1 0 83.6 0 41.8 27.4 0 1 0-83.6 0Z" fill="#FF6A48" p-id="1743"></path><path d="M320.8 814.6c-29.2 0-52.1-16.6-52.1-37.7s22.9-37.7 52.1-37.7 52.1 16.6 52.1 37.7c-0.1 21.1-22.9 37.7-52.1 37.7z m0-54.9c-18.1 0-31.6 9.1-31.6 17.2s13.5 17.2 31.6 17.2 31.6-9.1 31.6-17.2c-0.1-8.2-13.6-17.2-31.6-17.2z" fill="#7F0518" p-id="1744"></path><path d="M404.8 309.3c8.4-2.9 15-9.7 21.9-15.7 6.9-6 15-11.4 23.8-10.7 11.3 1 19.4 11.8 29.4 17.7 12.9 7.6 29.8 6.3 41.6-3.1 7-5.6 12.7-14 21.3-15.8 11.7-2.4 21.6 8.4 31.3 15.7 24.7 18.5 73 11.8 84.2-6.6 9.3-15.2 9.4-32.5-0.7-42.6-8.9-8.9-23.4-10.3-30.1-21.1-3.4-5.5-4.7-12.3-6.9-18.5-11.3-32-30.7-11.3-42.1-30.6-3.1-5.3 0.8-14.8-11.1-24.6-8.8-7.3-39.8 11.9-56.5-16.5-4.9 14.2-23.6 22-32.3 25.1-15.6 5.7-27-9.2-39.9 1.9-8.5 7.2-8 21-12.5 31.6-10.4 24.1-29.1 9.1-48.4 24.1-9.3 7.3-17 20.9-17.5 33.3-0.5 12.3 0.2 23.3 6.1 33.9 5.6 10.2 26.8 26.4 38.4 22.5z" fill="#FF6A48" p-id="1745"></path><path d="M401.1 320.1c-16.9 0-37.4-16.8-43.7-28.3-7.3-13.3-7.9-26.8-7.3-39.3 0.6-14.7 9.4-31.5 21.5-40.9 10.5-8.2 20.8-9.4 29-10.3 9.2-1.1 12.7-1.4 16.3-9.8 1.4-3.2 2.2-6.8 3-10.3 2-8.5 4.3-18.1 12.3-25 11.1-9.5 22.5-6.6 30.1-4.6 5.6 1.5 9.2 2.3 13 0.9 19.5-7.2 24.8-14.9 26.1-18.8 1.3-3.8 4.7-6.5 8.7-6.8 4.3-0.4 7.9 1.6 9.9 5 7.1 12 16.5 12 31.1 10.4 8.2-0.9 16.8-1.8 23.1 3.5 11.2 9.2 12.4 19 13.1 24.9 0.1 1 0.2 2 0.5 2.8 2.1 3.5 4 3.9 10.3 4.8 9.5 1.3 23.9 3.2 32.4 27.3 0.7 2 1.3 4.1 2 6.2 1.2 3.9 2.3 7.6 4 10.3 2.2 3.6 6.9 5.9 12.3 8.6 5.3 2.6 11.3 5.6 16.4 10.6 13.4 13.3 14.3 35.5 2.3 55.2-6.1 10-19 17.4-36.3 20.7-18.3 3.5-44.5 2.4-62.9-11.3-2-1.5-4-3.1-6-4.7-6.1-5-12.4-10.2-17.1-9.2-3.1 0.6-6.5 4-10.2 7.5-2.2 2.2-4.4 4.3-6.8 6.2-15.2 12.2-36.6 13.8-53.3 4-3.8-2.3-7.5-5.1-11-8-5.2-4.2-9.8-7.9-14.1-8.3-3.8-0.4-9.4 2.3-16.2 8.2l-3.3 2.9c-6.1 5.5-13 11.7-22 14.7-2.4 0.6-4.8 0.9-7.2 0.9z m3.7-10.8h0.3-0.3zM449.6 170c-1.7 0-2.8 0.5-4.2 1.7-2.9 2.5-4.2 8.1-5.7 14.1-1.1 4.7-2.3 9.4-4.1 13.7-8.3 19.3-22.5 20.9-32.8 22.1-6.8 0.8-12.7 1.4-18.7 6.1-7.4 5.8-13.3 16.8-13.6 25.6-0.5 11 0.2 20.1 4.8 28.5 4.6 8.4 21.4 19 26 17.7 5-1.7 9.8-6 14.9-10.6l3.5-3.1c7.1-6.2 18.1-14.2 31.5-13.1 10.6 1 18.3 7.2 25.2 12.8 2.8 2.3 5.6 4.5 8.5 6.3 9.2 5.4 21.6 4.5 30-2.3 1.8-1.5 3.6-3.2 5.3-4.9 5.3-5.2 11.4-11.1 20.3-13 14.3-3 25.3 6.1 34.3 13.4 1.8 1.4 3.5 2.9 5.3 4.2 10.7 8 29 11 46.7 7.6 13.2-2.5 20.4-7.6 22.6-11.2 6.9-11.2 7.2-23.6 0.8-30-2.7-2.7-6.7-4.7-11-6.8-7.2-3.6-15.3-7.6-20.6-16.2-3.1-5-4.7-10.4-6.1-15.2-0.5-1.8-1.1-3.5-1.7-5.2-4.3-12.2-8.1-12.7-15.8-13.7-7.2-1-18-2.4-25.5-15.1-2.1-3.5-2.5-7.1-2.9-10.3-0.5-4.4-0.9-7.6-5.9-11.6-0.2 0.3-4.6 0.8-7.8 1.1-10.9 1.2-27.6 3-41.2-8.5-6.7 7-16.7 12.9-29.7 17.6-10.1 3.7-18.9 1.4-25.2-0.3-3.4-0.8-5.5-1.4-7.2-1.4z" fill="#7F0518" p-id="1746"></path><path d="M866.5 705.5c-25.8 0-49.8-6.5-61.2-11.6-5.2-2.3-7.5-8.4-5.2-13.6 2.3-5.2 8.4-7.5 13.6-5.2 14.8 6.6 57.8 16.6 89.5 3.3 16.1-6.8 27-18.4 33.3-35.5 7.9-21.7-3.4-39.9-18.2-48.3-5.2-3-16.9-7.1-27.7-4.1-6.7 1.9-11.8 6.4-15.6 13.6-4.1 7.6-3.2 15.2 2.4 20.4 4.9 4.5 16.7 3.6 21.8-1.8 4-4.1 10.4-4.2 14.5-0.3 4.1 3.9 4.2 10.4 0.3 14.5-12.9 13.5-37.6 14.9-50.7 2.6-12.4-11.5-14.9-29.2-6.5-45 6.4-12 16.1-20.2 28-23.6 16.3-4.7 33.6 0.3 43.6 6 21.6 12.3 39.3 40.4 27.3 73.2-8.3 22.5-23.2 38.4-44.6 47.4-14 5.8-29.6 8-44.6 8z" fill="#7F0518" p-id="1747"></path><path d="M156.7 706.3c-15 0-30.6-2.2-44.6-8.1-21.3-9-36.3-24.9-44.6-47.4-12-32.8 5.7-60.9 27.3-73.2 9.9-5.7 27.4-10.7 43.6-6 11.9 3.4 21.6 11.6 28 23.6 8.4 15.8 5.9 33.5-6.5 45-13 12.2-37.6 11-50.7-2.6-3.9-4.1-3.8-10.6 0.3-14.5 4.1-3.9 10.6-3.8 14.5 0.3 5.1 5.4 16.9 6.3 21.8 1.8 5.6-5.2 6.4-12.8 2.4-20.4-3.8-7.2-8.9-11.6-15.6-13.5-10.8-3.2-22.5 1.1-27.8 4.1-14.8 8.4-26.1 26.6-18.2 48.3 6.3 17.1 17.2 28.8 33.3 35.5 31.7 13.4 74.7 3.4 89.4-3.3 5.1-2.4 11.2 0 13.5 5.2 2.3 5.2 0 11.2-5.2 13.6-11.1 5.1-35.1 11.6-60.9 11.6z" fill="#7F0518" p-id="1748"></path></svg>